<?xml version="1.0" encoding="UTF-8"?>
<svg version="1.1" xmlns="http://www.w3.org/2000/svg" width="1024" height="1024">
<path d="M0 0 C337.92 0 675.84 0 1024 0 C1024 337.92 1024 675.84 1024 1024 C686.08 1024 348.16 1024 0 1024 C0 686.08 0 348.16 0 0 Z " fill="#9027E2" transform="translate(0,0)"/>
<path d="M0 0 C337.92 0 675.84 0 1024 0 C1024 337.92 1024 675.84 1024 1024 C686.08 1024 348.16 1024 0 1024 C0 686.08 0 348.16 0 0 Z M455 92 C453.19136475 92.21112427 453.19136475 92.21112427 451.34619141 92.42651367 C381.35165842 101.08941401 311.31147058 128.55414002 255.86816406 172.52880859 C254.11211978 173.91170494 252.33969268 175.26806744 250.5546875 176.61328125 C229.84187598 192.23035271 209.67340515 210.08143546 193 230 C192.20722656 230.91523438 191.41445312 231.83046875 190.59765625 232.7734375 C173.42204647 252.6589978 158.03944649 274.18247297 145 297 C144.62633301 297.64195312 144.25266602 298.28390625 143.86767578 298.9453125 C127.2222505 327.57903701 114.06731163 358.13299897 105 390 C104.75443359 390.85625977 104.50886719 391.71251953 104.25585938 392.59472656 C98.82040931 411.79769003 95.20922146 431.33808628 92.25 451.0625 C92.13438721 451.80902832 92.01877441 452.55555664 91.8996582 453.32470703 C89.57694899 469.74416245 89.84067394 486.43757237 89.86962891 502.97753906 C89.87500102 506.6256931 89.86964544 510.27372462 89.86328125 513.921875 C89.85524717 532.08168489 90.62818004 549.59781632 93.75 567.5 C93.88516022 568.28535126 94.02032043 569.07070251 94.15957642 569.87985229 C94.96764177 574.57211054 95.79413155 579.2608019 96.63409424 583.94744873 C96.9594833 585.77272123 97.27693829 587.59940412 97.59326172 589.42626953 C106.74846022 641.72354125 129.53418615 694.66954307 160 738 C160.89770582 739.30820252 161.79479201 740.61683035 162.69140625 741.92578125 C169.20000675 751.35898918 176.1121323 760.35885308 183.45800781 769.15380859 C184.90358644 770.88456628 186.33931694 772.62302913 187.7734375 774.36328125 C200.63698318 789.87327015 214.58188661 804.9971102 230 818 C230.88300781 818.77214844 231.76601562 819.54429687 232.67578125 820.33984375 C242.37184181 828.76940891 252.64571342 836.40370764 263 844 C263.72735352 844.53802246 264.45470703 845.07604492 265.20410156 845.63037109 C308.92037111 877.86984013 361.08278109 900.31845606 414 912 C415.01368652 912.22526367 416.02737305 912.45052734 417.07177734 912.68261719 C440.63824731 917.84111694 464.52202436 921.14313943 488.67578125 921.16796875 C490.4272773 921.17296135 490.4272773 921.17296135 492.2141571 921.17805481 C494.6721457 921.1830825 497.13014103 921.18546443 499.58813477 921.18530273 C503.2652576 921.18747213 506.94207131 921.20562618 510.61914062 921.22460938 C532.13846099 921.27816703 553.17926716 919.86078456 574.375 916.125 C575.93843648 915.85596816 577.50191361 915.58717242 579.06542969 915.31860352 C594.16357074 912.70188844 608.87564172 909.68132318 623.43945312 904.83837891 C626.46670267 903.84719136 629.50670448 902.90002733 632.546875 901.94921875 C689.69493848 883.80697638 741.26239632 853.50106516 785.6015625 813.1796875 C787.2337364 811.69637637 788.87474918 810.22274608 790.5234375 808.7578125 C798.17559181 801.95328144 805.47258251 794.92311054 812.13671875 787.140625 C814.28886777 784.66813514 816.51980719 782.27728643 818.75 779.875 C824.52962027 773.5208994 829.81190581 766.84200575 835 760 C835.55236328 759.27216309 836.10472656 758.54432617 836.67382812 757.79443359 C849.33095548 741.03964965 860.45047275 723.72836611 870.66894531 705.38769531 C871.81969443 703.32343883 872.98275829 701.26677175 874.1484375 699.2109375 C893.95212434 663.40263843 907.77423959 622.9015018 914.55566406 582.60449219 C915.03113781 579.81748454 915.54166724 577.03814112 916.0546875 574.2578125 C920.10432185 551.84052236 921.34309353 529.52651951 921.26074219 506.76904297 C921.24996271 503.23778297 921.26075098 499.70702665 921.2734375 496.17578125 C921.28265624 482.33543621 920.68348966 468.73904106 919 455 C918.91792297 454.31351379 918.83584595 453.62702759 918.75128174 452.91973877 C913.7362368 411.67653156 902.01955018 371.85434102 885 334 C884.55930176 333.01547852 884.11860352 332.03095703 883.66455078 331.01660156 C865.54710326 290.91235176 840.04252551 254.0918705 810 222 C808.57174617 220.43814009 807.14903042 218.87135086 805.72631836 217.30444336 C799.27247062 210.20866567 792.70762497 203.32829374 785.41796875 197.08203125 C783.54812801 195.47197452 781.70184781 193.84436702 779.86328125 192.19921875 C769.70318614 183.16786633 758.99150173 174.99077633 748 167 C747.09967041 166.34306152 747.09967041 166.34306152 746.18115234 165.67285156 C703.81555762 134.95747356 652.4845758 110.57864894 601 100 C599.85644043 99.76087891 598.71288086 99.52175781 597.53466797 99.27539062 C567.68211828 93.09347442 538.5973227 89.81268717 508.09619141 89.81469727 C504.4038529 89.81251704 500.71181695 89.79432164 497.01953125 89.77539062 C482.88886268 89.74144973 469.02790029 90.28506322 455 92 Z " fill="#FEFEFE" transform="translate(0,0)"/>
<path d="M0 0 C5.73143193 2.11813789 7.39604124 6.79208248 10 12 C10.0991178 14.20625381 10.13103518 16.41560093 10.13422108 18.6240778 C10.13657331 19.31592233 10.13892554 20.00776686 10.14134905 20.72057638 C10.14805904 23.06211053 10.14758022 25.40358946 10.14717102 27.74513245 C10.15046842 29.43161334 10.15419372 31.11809344 10.1583125 32.80457252 C10.16835503 37.45732475 10.17205291 42.11006408 10.17470181 46.76282561 C10.17859828 51.77392161 10.18817716 56.78500734 10.19691467 61.7960968 C10.21669922 73.90812891 10.22674848 86.02016188 10.23564246 98.13220611 C10.2400227 103.8327815 10.24539025 109.53335594 10.25063133 115.23393059 C10.26764671 134.17929803 10.282141 153.12466488 10.28938007 172.0700388 C10.29129005 176.98915673 10.29321037 181.90827466 10.29516602 186.82739258 C10.29564976 188.05005284 10.2961335 189.2727131 10.2966319 190.53242367 C10.30493254 210.33968241 10.33026867 230.14688076 10.36274669 249.95411313 C10.39580355 270.27975418 10.41382765 290.60536453 10.41702431 310.9310326 C10.41919084 322.34713701 10.42796021 333.7631534 10.45348549 345.17923164 C10.47517383 354.90189321 10.48325214 364.62444539 10.47351871 374.3471284 C10.46896841 379.30822058 10.47090261 384.26908698 10.49028015 389.23014832 C10.50787271 393.77345678 10.50694585 398.3163741 10.49138286 402.85968649 C10.48900083 404.50177263 10.49336118 406.14388559 10.50521151 407.7859307 C10.61864332 424.54409265 10.61864332 424.54409265 6 431 C1.90594393 434.68674122 -2.39190463 435.72454065 -7.85546875 435.4453125 C-11.62034732 434.66353444 -13.48613253 432.8131374 -16 430 C-18.52611818 425.02471549 -19.37529787 421.41703072 -19.37752342 415.75788975 C-19.38188374 415.0599764 -19.38624407 414.36206305 -19.39073652 413.64300081 C-19.40166113 411.31075592 -19.39128419 408.97910615 -19.38095093 406.64686584 C-19.38440861 404.95535478 -19.38917391 403.26384596 -19.39513266 401.57234186 C-19.40765729 396.92889556 -19.40146558 392.28563421 -19.39217401 387.64218724 C-19.38538982 382.63255441 -19.39586166 377.62295352 -19.40411377 372.61332703 C-19.4174603 362.80103771 -19.41456917 352.9888172 -19.40587585 343.17652518 C-19.39910295 335.20192593 -19.39818088 327.22734598 -19.4014473 319.25274467 C-19.401907 318.11810478 -19.40236669 316.98346488 -19.40284032 315.81444196 C-19.40379949 313.50948854 -19.40477213 311.20453513 -19.4057581 308.89958172 C-19.41431479 287.28077993 -19.40447368 265.66201629 -19.388357 244.04322075 C-19.37495538 225.49209225 -19.37728009 206.94102006 -19.39111328 188.38989258 C-19.40716727 166.85042803 -19.41348888 145.31099693 -19.40427649 123.77152723 C-19.40332084 121.47470852 -19.40237773 119.17788981 -19.4014473 116.88107109 C-19.40098447 115.75097649 -19.40052164 114.62088189 -19.40004479 113.456542 C-19.39745423 105.49175717 -19.40182737 97.52699354 -19.40888596 89.56221199 C-19.41729921 79.85538237 -19.41502452 70.14862552 -19.39904372 60.44180424 C-19.39115843 55.48894706 -19.38807386 50.53621124 -19.39799118 45.58335495 C-19.40693324 41.04897771 -19.4020132 36.51483427 -19.38605852 31.98047822 C-19.38270864 30.34058523 -19.38440946 28.70067248 -19.39168589 27.06079222 C-19.46544036 9.05710091 -19.46544036 9.05710091 -13.4375 2 C-8.82071113 -0.68613171 -5.21907053 -0.77805239 0 0 Z " fill="#FEFEFE" transform="translate(379,290)"/>
<path d="M0 0 C5.05702037 2.24970108 8.1963713 5.4131466 10.8046875 10.3515625 C11.48576555 13.37982256 11.47755169 16.29651366 11.43287659 19.39112854 C11.43997097 20.27900698 11.44706536 21.16688542 11.45437473 22.08166927 C11.4719221 25.04520746 11.45386651 28.00742845 11.43579102 30.97094727 C11.44093103 33.10015458 11.44821292 35.22935764 11.45747375 37.35855103 C11.47598415 43.13330895 11.46305157 48.90760503 11.44338346 54.68234372 C11.42699501 60.72670607 11.43581003 66.77103922 11.44090271 72.81541443 C11.44542308 82.96450171 11.4295563 93.11340465 11.40161133 103.26245117 C11.3695512 114.99652584 11.36957878 126.7302682 11.3868261 138.4643665 C11.40268806 149.75341113 11.39596026 161.04233391 11.37888908 172.33137321 C11.37201611 177.13548971 11.37305359 181.93950861 11.38043404 186.74362373 C11.38809347 192.39984907 11.3759815 198.05569603 11.34858513 203.71185684 C11.34169702 205.78791747 11.34160786 207.86401342 11.34880066 209.94007301 C11.3574864 212.77346468 11.34155396 215.60568628 11.3193512 218.4389801 C11.32759196 219.261064 11.33583273 220.08314789 11.34432322 220.93014342 C11.26811582 226.19697849 10.26124723 229.15631544 6.8046875 233.3515625 C1.32077274 238.18263027 -2.00070649 238.70180993 -9.2109375 238.6328125 C-14.31661747 238.15164894 -16.80109461 235.72147785 -20.31981659 232.26409054 C-22.9036566 228.25154835 -22.75309233 225.11624909 -22.70324707 220.43861389 C-22.71260701 219.09098352 -22.71260701 219.09098352 -22.72215605 217.71612829 C-22.7381132 214.70509801 -22.72547097 211.6948742 -22.71289062 208.68383789 C-22.71831056 206.52537056 -22.72543249 204.36690693 -22.73413086 202.20845032 C-22.75238337 196.34480211 -22.7452883 190.48143507 -22.73261452 184.61778188 C-22.72249561 178.48398528 -22.73187724 172.35021294 -22.73815918 166.21641541 C-22.74543935 155.91417107 -22.73583868 145.61204138 -22.71679688 135.30981445 C-22.69503329 123.39742721 -22.70207443 111.48531385 -22.7241025 99.57293326 C-22.74225277 89.34859563 -22.74481643 79.12434047 -22.73434782 68.89999193 C-22.72811014 62.79202214 -22.72728481 56.68418109 -22.74049377 50.57621956 C-22.75204591 44.83303569 -22.74403776 39.09020496 -22.72091675 33.34705925 C-22.71562607 31.23874371 -22.71714954 29.13039847 -22.72596741 27.02209473 C-22.73689216 24.1448264 -22.72319595 21.26869083 -22.70324707 18.39149475 C-22.71216996 17.55637377 -22.72109284 16.7212528 -22.73028612 15.86082512 C-22.65908306 10.56915936 -21.706801 7.54806654 -18.1953125 3.3515625 C-12.32083904 -0.70462156 -7.00695901 -2.06967117 0 0 Z " fill="#FEFDFE" transform="translate(557.1953125,388.6484375)"/>
<path d="M0 0 C4.84617714 2.19535468 7.07695927 4.57258269 9.703125 9.31640625 C10.26487139 12.30627075 10.24385173 15.23144444 10.21105957 18.26695251 C10.21729953 19.15735452 10.2235395 20.04775652 10.22996855 20.9651404 C10.24589919 23.9430956 10.23329385 26.92023236 10.22070312 29.89819336 C10.22612424 32.03548154 10.23324684 34.17276598 10.24194336 36.31004333 C10.26018185 42.11171907 10.25310656 47.91311034 10.24042702 53.71479106 C10.23030086 59.78672093 10.23969176 65.85862642 10.24597168 71.93055725 C10.25324974 82.12847262 10.24365673 92.32627214 10.22460938 102.52416992 C10.20284626 114.31215898 10.20988744 126.09987123 10.231915 137.88785356 C10.25007137 148.00946799 10.25262595 158.13099912 10.24216032 168.25262457 C10.23592599 174.2974546 10.23508812 180.34215458 10.24830627 186.38697624 C10.25986727 192.07108186 10.25183406 197.75483095 10.22872925 203.43889809 C10.2234433 205.52421858 10.22495396 207.60956911 10.23377991 209.69487762 C10.2447234 212.54328128 10.23098585 215.39054515 10.21105957 218.23887634 C10.21998246 219.06262046 10.22890534 219.88636458 10.23809862 220.73507065 C10.16157149 226.38138185 8.95091465 229.66864747 5.703125 234.31640625 C0.65802899 238.41554676 -3.88541442 239.1089552 -10.34765625 238.90625 C-15.84178205 237.80742484 -19.28916747 234.25339464 -22.37537575 229.73871422 C-23.75958793 226.10009142 -23.57865469 222.47775609 -23.56430054 218.63760376 C-23.56883165 217.75228859 -23.57336276 216.86697343 -23.57803118 215.95483053 C-23.59071163 212.98236681 -23.58905246 210.01008546 -23.58740234 207.03759766 C-23.5933853 204.9088365 -23.6001903 202.78007752 -23.60775757 200.65132141 C-23.62544804 194.86413832 -23.63011422 189.07701435 -23.63138914 183.28980684 C-23.63328676 178.46117252 -23.64064269 173.63255202 -23.64773333 168.80392301 C-23.66402632 157.41322022 -23.66890144 146.02254904 -23.66748047 134.63183594 C-23.66627865 122.87569667 -23.68738646 111.11974088 -23.7189678 99.36364806 C-23.74510492 89.27522562 -23.75584885 79.1868632 -23.75456965 69.09840715 C-23.75405928 63.07088614 -23.75978393 57.04352814 -23.78092575 51.0160408 C-23.80026496 45.34758851 -23.80046205 39.67945548 -23.78589249 34.01099205 C-23.78379796 31.93008013 -23.78854343 29.84914846 -23.8006134 27.76827049 C-23.81602057 24.92819522 -23.80678759 22.08922699 -23.79135132 19.24917603 C-23.80163844 18.42504577 -23.81192557 17.60091552 -23.82252443 16.75181162 C-23.75912018 11.47563552 -22.7625279 8.51815198 -19.296875 4.31640625 C-13.34408121 -0.92772161 -7.78804375 -2.31787016 0 0 Z " fill="#FEFEFE" transform="translate(441.296875,388.68359375)"/>
<path d="M0 0 C5.0603312 2.44854735 7.1416362 6.21806555 9.00390625 11.37890625 C9.5238565 14.4176974 9.54583809 17.37154805 9.51184082 20.44934082 C9.52120076 21.76807276 9.52120076 21.76807276 9.5307498 23.11344576 C9.54662687 26.04140308 9.53409628 28.96852178 9.52148438 31.89648438 C9.52690783 34.00288883 9.53403175 36.10928949 9.54272461 38.21568298 C9.56093409 43.92433694 9.5539001 49.63270118 9.54120827 55.34136009 C9.53106838 61.32072088 9.5404767 67.30005717 9.54675293 73.27941895 C9.55402643 83.31995081 9.54444935 93.36036492 9.52539062 103.40087891 C9.50362255 115.00257508 9.51067412 126.60399006 9.53269625 138.20567942 C9.55085863 148.17363594 9.55340443 158.14150789 9.54294157 168.10947561 C9.5367113 174.05985211 9.53585831 180.01009651 9.54908752 185.96046448 C9.56065749 191.55513713 9.55259895 197.14944787 9.5295105 202.7440815 C9.52422959 204.79511985 9.52572656 206.84618876 9.53456116 208.89721489 C9.54552454 211.70137583 9.53174335 214.5043838 9.51184082 217.30847168 C9.52522515 218.52016297 9.52522515 218.52016297 9.53887987 219.75633287 C9.44553986 226.5563968 7.37017516 231.7422066 2.81640625 236.81640625 C-1.07630212 238.97902201 -4.55817348 239.57492746 -8.99609375 239.37890625 C-14.47037069 237.51971785 -16.93924839 234.42691014 -20.08833408 229.76033401 C-21.46622551 226.14555685 -21.28138969 222.52973151 -21.27024841 218.71356201 C-21.27548509 217.82965798 -21.28072177 216.94575394 -21.28611714 216.03506494 C-21.30114293 213.06727642 -21.30182286 210.09965992 -21.30249023 207.13183594 C-21.31011004 205.00631925 -21.31853723 202.88080533 -21.32771301 200.7552948 C-21.34968396 194.9762479 -21.35846055 189.19725392 -21.36353946 183.41816998 C-21.36718031 179.80791024 -21.37341899 176.19766442 -21.38054085 172.58740997 C-21.40504547 159.99300018 -21.4180892 147.39863163 -21.42163086 134.80419922 C-21.42526572 123.06396762 -21.45515515 111.32399753 -21.49703544 99.58384585 C-21.5317271 89.50558282 -21.54717912 79.42740648 -21.54787689 69.34908414 C-21.54867016 63.32928044 -21.55743182 57.30974294 -21.58587456 51.29000092 C-21.61203522 45.62641826 -21.61427122 39.96332287 -21.59821892 34.29970741 C-21.59640279 32.22285462 -21.60310984 30.14597395 -21.61903763 28.06918144 C-21.63948485 25.22960659 -21.62895413 22.39173868 -21.61082458 19.55218506 C-21.62402455 18.73388049 -21.63722452 17.91557592 -21.65082449 17.07247424 C-21.56331259 11.05494093 -19.73707244 7.07824749 -15.99609375 2.37890625 C-11.46831824 -1.64578309 -5.63265523 -1.75262658 0 0 Z " fill="#FBF8FE" transform="translate(317.99609375,388.62109375)"/>
<path d="M0 0 C3.58555343 1.29190461 6.26096349 3.07662918 8.6710825 6.08789253 C10.50008728 10.09586028 10.41897665 13.5493623 10.38768005 17.90621948 C10.39306559 18.80393417 10.39845113 19.70164885 10.40399987 20.62656701 C10.4183091 23.63513587 10.41116833 26.6432666 10.40405273 29.65185547 C10.40975478 31.80869908 10.41671839 33.96553967 10.42485046 36.12237549 C10.44281617 41.98191007 10.44160693 47.84129518 10.43590808 53.70084906 C10.43282087 58.59157713 10.43890354 63.4822763 10.44494683 68.37300026 C10.45900193 79.91096336 10.45742281 91.44885243 10.44604492 102.98681641 C10.4345651 114.89122273 10.44863499 126.79540372 10.4754414 138.69978034 C10.49759193 148.91903041 10.50423715 159.13820971 10.49836498 169.35748208 C10.49499239 175.46158054 10.49743059 181.56553459 10.51461601 187.66961288 C10.53007241 193.41032284 10.52614379 199.15069887 10.50731087 204.89139557 C10.50362127 206.99768382 10.5067442 209.10399675 10.51719666 211.2102623 C10.53038275 214.08716492 10.51887978 216.96295828 10.50120544 219.83981323 C10.51081045 220.67202137 10.52041546 221.50422951 10.53031152 222.36165607 C10.45178128 228.58052368 8.94010952 233.08135114 4.39453125 237.59375 C0.21103417 239.9902224 -3.08597564 240.48439512 -7.85546875 239.671875 C-12.45737451 238.23011217 -15.08230937 235.46551408 -17.6398325 231.38125515 C-19.35264644 227.1233524 -19.42088471 223.62931558 -19.38768005 219.0874176 C-19.39306559 218.20109915 -19.39845113 217.3147807 -19.40399987 216.40160412 C-19.41828465 213.43759728 -19.41117439 210.47403671 -19.40405273 207.51000977 C-19.40975601 205.38257488 -19.41672011 203.25514306 -19.42485046 201.12771606 C-19.44280136 195.35294805 -19.44160984 189.57833183 -19.43590808 183.80354428 C-19.4328191 178.98235508 -19.43890543 174.16119515 -19.44494683 169.34001011 C-19.45899673 157.96647614 -19.4574268 146.59301727 -19.44604492 135.21948242 C-19.43456234 123.48603323 -19.4486408 111.75281258 -19.4754414 100.0193935 C-19.49759211 89.94449553 -19.5042372 79.86966932 -19.49836498 69.79474872 C-19.49499283 63.77785485 -19.49742782 57.76110749 -19.51461601 51.74423409 C-19.53007297 46.08640755 -19.52614319 40.42891981 -19.50731087 34.77110672 C-19.5036216 32.69545621 -19.50674325 30.61978068 -19.51719666 28.54415321 C-19.53038486 25.70889966 -19.51887808 22.87477128 -19.50120544 20.03956604 C-19.51081045 19.21971287 -19.52041546 18.3998597 -19.53031152 17.55516249 C-19.45807374 11.91605698 -18.22022681 8.6531089 -15 4 C-10.32289919 -0.24202167 -6.07839022 -1.04654023 0 0 Z " fill="#FDFCFE" transform="translate(678,388)"/>
<path d="M0 0 C5.04416044 2.21867207 7.64124793 5.18151843 9.703125 10.3515625 C10.26761948 13.92517463 10.25040807 17.44457525 10.22070312 21.05688477 C10.2277124 22.11140839 10.23472168 23.16593201 10.24194336 24.25241089 C10.25949249 27.72453444 10.24791173 31.19583747 10.234375 34.66796875 C10.23707058 37.08739884 10.24095355 39.50682788 10.24597168 41.92625427 C10.25186241 46.99089904 10.2433163 52.05526119 10.22460938 57.11987305 C10.20180837 63.60879513 10.2149536 70.09705583 10.23889923 76.58595371 C10.25335798 81.57969643 10.24875096 86.5732825 10.23838806 91.56702995 C10.23572165 93.95961523 10.2389875 96.35221478 10.24830627 98.7447834 C10.25847397 102.08878351 10.24296671 105.43171423 10.22070312 108.77563477 C10.22880005 109.7622963 10.23689697 110.74895782 10.24523926 111.76551819 C10.17486566 117.47608465 9.55894374 120.84284853 5.703125 125.3515625 C1.51398382 129.22651809 -1.04288296 130.18144989 -6.609375 130.6015625 C-11.38193831 130.27799889 -15.28357117 129.29741028 -18.8125 125.88671875 C-21.98892985 122.15350091 -23.41808679 119.83752731 -23.44404602 115.0133667 C-23.45120132 114.10214554 -23.45835663 113.19092438 -23.46572876 112.25209045 C-23.46841766 111.24947678 -23.47110657 110.2468631 -23.47387695 109.21386719 C-23.48044815 108.1600737 -23.48701935 107.10628021 -23.49378967 106.02055359 C-23.5135544 102.52151423 -23.52519249 99.02251785 -23.53515625 95.5234375 C-23.53923178 94.33021126 -23.5433073 93.13698502 -23.54750633 91.9076004 C-23.56838082 85.59188509 -23.58267646 79.27619159 -23.59204102 72.96044922 C-23.60310701 66.43222313 -23.63750561 59.90433775 -23.67721272 53.37623215 C-23.70334193 48.36107748 -23.7117296 43.34600442 -23.71532249 38.33078766 C-23.72019815 35.92422434 -23.73183981 33.5176649 -23.75036049 31.11116791 C-23.77467198 27.74278176 -23.77380104 24.37528271 -23.7668457 21.00683594 C-23.77965576 20.01231918 -23.79246582 19.01780243 -23.80566406 17.9931488 C-23.76250427 12.25928079 -23.18797945 8.86950361 -19.296875 4.3515625 C-13.31157777 -0.92119934 -7.83051692 -2.21065614 0 0 Z " fill="#FEFEFE" transform="translate(620.296875,442.6484375)"/>
<path d="M0 0 C4.29636015 2.06520316 6.19961467 4.8032902 8.19493103 9.02946472 C9.67231479 13.29239341 9.56313087 17.50763436 9.52539062 21.97851562 C9.5323999 23.01046555 9.53940918 24.04241547 9.54663086 25.1056366 C9.5641554 28.497786 9.55260721 31.88909293 9.5390625 35.28125 C9.54175899 37.64961913 9.54564272 40.01798718 9.55065918 42.38635254 C9.55654675 47.34247409 9.54801478 52.29830666 9.52929688 57.25439453 C9.50650825 63.59624486 9.51963524 69.93741797 9.54358673 76.27924347 C9.55806446 81.1675524 9.55342955 86.05570168 9.54307556 90.9440155 C9.54041376 93.28191712 9.54365872 95.6198334 9.55299377 97.9577179 C9.56319148 101.22936205 9.54761195 104.49992073 9.52539062 107.77148438 C9.53348755 108.73068283 9.54158447 109.68988129 9.54992676 110.67814636 C9.47389265 116.74339383 8.42071051 121.29375337 5.0078125 126.375 C1.30826783 129.9589339 -1.83981501 130.28206673 -6.8671875 130.6875 C-11.27207749 130.59743719 -13.68157214 129.38465033 -16.9921875 126.375 C-21.12062071 120.42695838 -21.56943434 114.84011145 -21.50976562 107.77148438 C-21.5167749 106.73953445 -21.52378418 105.70758453 -21.53100586 104.6443634 C-21.5485304 101.252214 -21.53698221 97.86090707 -21.5234375 94.46875 C-21.52613399 92.10038087 -21.53001772 89.73201282 -21.53503418 87.36364746 C-21.54092175 82.40752591 -21.53238978 77.45169334 -21.51367188 72.49560547 C-21.49088325 66.15375514 -21.50401024 59.81258203 -21.52796173 53.47075653 C-21.54243946 48.5824476 -21.53780455 43.69429832 -21.52745056 38.8059845 C-21.52478876 36.46808288 -21.52803372 34.1301666 -21.53736877 31.7922821 C-21.54756648 28.52063795 -21.53198695 25.25007927 -21.50976562 21.97851562 C-21.51786255 21.01931717 -21.52595947 20.06011871 -21.53430176 19.07185364 C-21.45864008 13.0363145 -20.46122228 8.40026824 -16.9921875 3.375 C-11.93652953 -1.32793765 -6.47962905 -2.0328248 0 0 Z " fill="#FBF8FE" transform="translate(500.9921875,442.625)"/>
<path d="M0 0 C4.99201181 1.7112576 7.53874191 4.17342606 10.13371468 8.83846855 C11.80145353 12.99976492 11.54515639 17.28040772 11.50170898 21.70532227 C11.50711197 22.75984589 11.51251495 23.81436951 11.51808167 24.90084839 C11.53054919 28.37298991 11.51409132 31.84429915 11.49609375 35.31640625 C11.49624877 37.7358352 11.49773827 40.1552644 11.50050354 42.57469177 C11.50188662 47.63934336 11.48934332 52.70371145 11.46655273 57.76831055 C11.43815363 64.25714928 11.44091099 70.74551759 11.45364285 77.23439121 C11.46060017 82.2281241 11.45281028 87.22174842 11.44038582 92.21546745 C11.43587295 94.6080477 11.43553308 97.00063961 11.43945122 99.3932209 C11.44236425 102.73708085 11.42585157 106.08029407 11.40405273 109.42407227 C11.40855438 110.4107338 11.41305603 111.39739532 11.41769409 112.41395569 C11.35263219 118.42624478 10.7534956 123.05032659 6.46484375 127.64453125 C2.06888325 131.0061481 -0.25528118 132.35689752 -5.90234375 132.28515625 C-10.21394851 131.69903493 -13.03150384 129.10208184 -15.8125 125.9375 C-17.76768909 122.74745465 -18.1278437 120.11986856 -18.14717102 116.46562195 C-18.15432632 115.53619781 -18.16148163 114.60677368 -18.16885376 113.64918518 C-18.17288712 112.12260536 -18.17288712 112.12260536 -18.17700195 110.56518555 C-18.18357315 109.49173889 -18.19014435 108.41829224 -18.19691467 107.31231689 C-18.21665389 103.7537835 -18.22831096 100.19529229 -18.23828125 96.63671875 C-18.24235678 95.42234446 -18.2464323 94.20797016 -18.25063133 92.95679665 C-18.2714935 86.53085118 -18.28579531 80.10492709 -18.29516602 73.67895508 C-18.30623809 67.03754149 -18.34064716 60.39647042 -18.38033772 53.75516033 C-18.40646311 48.6516507 -18.41485419 43.54822128 -18.41844749 38.44465065 C-18.42332301 35.99622143 -18.43496426 33.54779601 -18.45348549 31.09943199 C-18.47779201 27.67368305 -18.4769271 24.24880654 -18.4699707 20.82299805 C-18.48278076 19.81135086 -18.49559082 18.79970367 -18.50878906 17.75740051 C-18.46605387 11.98526766 -17.93405349 8.53907696 -14 4 C-9.60759125 0.20655608 -5.7187273 -1.0729527 0 0 Z " fill="#FEFDFE" transform="translate(740,441)"/>
<path d="M0 0 C4.00209065 2.08583538 6.04292099 4.2685207 7.96875 8.2734375 C8.34970093 11.33995056 8.34970093 11.33995056 8.35693359 14.80444336 C8.36639008 16.10606918 8.37584656 17.40769501 8.3855896 18.74876404 C8.38021902 20.16193955 8.37406585 21.57511227 8.3671875 22.98828125 C8.36921012 24.44649908 8.37212313 25.90471592 8.37588501 27.3629303 C8.38030093 30.41514746 8.37390211 33.4671007 8.35986328 36.51928711 C8.34278672 40.42097756 8.35260701 44.32204815 8.37058067 48.22371578 C8.38145148 51.23414225 8.37795688 54.24442321 8.3701973 57.2548542 C8.36820359 58.69288774 8.37062529 60.13093473 8.37763596 61.56895256 C8.38530223 63.58364464 8.37153496 65.59838335 8.35693359 67.61303711 C8.35454681 68.75711533 8.35216003 69.90119354 8.34970093 71.0799408 C7.75377531 76.07556189 6.05696416 79.28886279 2.34375 82.6484375 C-3.0725531 85.25628714 -7.59780768 85.02218898 -13.28125 83.2734375 C-17.11600731 80.48452309 -19.22978827 77.67505286 -21.03125 73.2734375 C-21.75484511 68.50929257 -21.73244106 63.80390144 -21.6953125 58.9921875 C-21.69868781 57.61030655 -21.70354636 56.2284285 -21.70980835 54.84655762 C-21.71714635 51.96170563 -21.70657582 49.07763198 -21.68310547 46.19287109 C-21.65461726 42.51412746 -21.67103815 38.83720806 -21.70096779 35.15853119 C-21.71912564 32.30835481 -21.71324455 29.45860361 -21.70032883 26.6084137 C-21.69542053 24.59891562 -21.71047722 22.58940031 -21.72598267 20.57995605 C-21.63201773 13.21766831 -21.05477665 7.89313288 -16.03125 2.2734375 C-11.54305498 -1.71606919 -5.55203419 -1.98591992 0 0 Z " fill="#FDFBFE" transform="translate(264.03125,465.7265625)"/>
<path d="M0 0 C4.69994029 1.71728588 7.20959499 3.86606666 10 8 C11.07974661 11.23923984 11.13987006 13.62045523 11.16113281 17.02856445 C11.17074036 18.27027908 11.1803479 19.51199371 11.19024658 20.79133606 C11.19509506 22.14864925 11.19937377 23.50596458 11.203125 24.86328125 C11.20887963 26.25709535 11.21463733 27.65090944 11.22039795 29.04472351 C11.23089962 31.96756356 11.23674752 34.89037617 11.24023438 37.81323242 C11.24571296 41.54901772 11.26973046 45.28443741 11.29820633 49.02010822 C11.31687986 51.90011129 11.32204083 54.78002719 11.32357025 57.66008568 C11.32658743 59.03673485 11.33458432 60.41338283 11.34775543 61.78997231 C11.36491028 63.72099149 11.36107729 65.65216212 11.35644531 67.58325195 C11.36009094 68.6800679 11.36373657 69.77688385 11.36749268 70.90693665 C10.71163381 76.42708208 8.21124155 80.44676494 4 84 C-0.38331321 85.4611044 -4.42847447 85.73421471 -9 85 C-13.82428113 82.37657705 -16.27151403 79.16228658 -18 74 C-18.26742554 71.00941467 -18.26742554 71.00941467 -18.29052734 67.65258789 C-18.30328705 66.39100357 -18.31604675 65.12941925 -18.32919312 63.8296051 C-18.33225063 62.46062372 -18.33447846 61.09164027 -18.3359375 59.72265625 C-18.34236981 58.30927904 -18.3490985 56.89590315 -18.35610962 55.48252869 C-18.36806271 52.52453525 -18.37179239 49.56665845 -18.37060547 46.60864258 C-18.37040218 42.82792509 -18.39772253 39.04795842 -18.43214989 35.26741886 C-18.45444092 32.34965106 -18.45844238 29.4320635 -18.45738602 26.51421928 C-18.45973796 25.12081752 -18.46853865 23.72741049 -18.48405075 22.33409309 C-18.62018303 8.84598145 -18.62018303 8.84598145 -14 4 C-9.44787756 0.06862153 -5.81719888 -0.95402062 0 0 Z " fill="#FEFDFE" transform="translate(794,465)"/>
</svg>
